<?xml version="1.0" encoding="utf-8"?>
<svg xmlns="http://www.w3.org/2000/svg" width="24" height="24" fill="none" viewBox="0 0 24 24">
  <path fill="currentColor" fill-rule="evenodd" d="M19.742 13.807c-.86-1.832-.837-2.52-.798-3.773.01-.296.02-.617.02-.986C18.964 6.122 16.804 2 12 2 7.197 2 5.036 6.122 5.036 9.048c0 .368.01.69.02.986.04 1.252.062 1.941-.807 3.797-.372.928-.327 1.73.135 2.382C5.492 17.783 8.7 18 12 18s6.508-.216 7.616-1.787c.463-.653.508-1.454.125-2.406Zm-4.686 5.198c-1.848.193-3.852.192-6.13-.002a.873.873 0 0 0-.835.437.763.763 0 0 0 .125.893C9.236 21.407 10.578 22 11.994 22h.002c1.42 0 2.765-.592 3.788-1.667a.765.765 0 0 0 .122-.9c-.162-.294-.495-.458-.85-.428Z" clip-rule="evenodd"/>
</svg>
