<?xml version="1.0" encoding="utf-8"?>
<svg xmlns="http://www.w3.org/2000/svg" width="24" height="24" fill="none" viewBox="0 0 24 24">
  <path fill="currentColor" fill-rule="evenodd" d="M11.998 11a3.996 3.996 0 0 0 4-4c.084-2.213-1.702-4-4-4A3.995 3.995 0 0 0 8 7c0 2.213 1.787 4 3.998 4Zm6.94 6.878c-.3-1.04-.9-1.986-2.097-2.743C15.843 14.473 14.246 14 12.05 14c-4.292 0-6.39 1.892-6.987 3.878-.2.568.1 1.136.598 1.42C7.458 20.431 9.654 21 12.05 21c2.296 0 4.492-.662 6.288-1.703.5-.284.8-.851.6-1.419Z" clip-rule="evenodd"/>
</svg>
