<?xml version="1.0" encoding="utf-8"?>
<svg xmlns="http://www.w3.org/2000/svg" width="24" height="24" fill="none" viewBox="0 0 18 18">
  <path fill="currentColor" d="M7.17 14.288c.03.12.064.238.102.354.213.661.543 1.251.926 1.772a3.964 3.964 0 0 1-2.036-1.164.573.573 0 0 1-.094-.67.654.654 0 0 1 .626-.328c.16.014.32.025.477.036ZM9.002 1.5c3.602 0 5.222 3.092 5.222 5.286 0 .277-.008.517-.015.74-.006.202-.011.384-.01.56-.253.05-.49.126-.706.213a3.832 3.832 0 0 0-.803-.23v.001a5.083 5.083 0 0 0-2.274.149l-.009.003-.01.003c-2.594.808-3.54 3.168-3.364 5.22-1.696-.11-3.138-.427-3.744-1.285-.346-.489-.38-1.091-.101-1.787.651-1.392.635-1.909.605-2.848a21.233 21.233 0 0 1-.015-.739c0-2.194 1.621-5.286 5.224-5.286Z"/>
  <path fill="currentColor" fill-rule="evenodd" d="M17.758 11.709a2.743 2.743 0 0 0-1.751-1.575 3.024 3.024 0 0 0-1.38-.095c-.423.069-.806.313-1.128.54-.311-.218-.704-.466-1.129-.535a3.083 3.083 0 0 0-1.378.09c-1.768.55-2.312 2.412-1.818 3.893.77 2.377 4.084 3.888 4.225 3.952a.247.247 0 0 0 .2 0c.139-.063 3.404-1.548 4.22-3.95.261-.783.239-1.607-.061-2.32Z" clip-rule="evenodd"/>
</svg>
