<?xml version="1.0" encoding="utf-8"?>
<svg xmlns="http://www.w3.org/2000/svg" width="24" height="24" viewBox="0 0 24 24" fill="none">
  <path fill="currentColor" fill-rule="evenodd" d="M10.84 10.355a6.684 6.684 0 0 1 7.462-1.374c.158.071.331-.078.268-.24a8.109 8.109 0 0 0-1.825-2.773 8.175 8.175 0 0 0-5.837-2.429A8.175 8.175 0 0 0 5.07 5.968a8.338 8.338 0 0 0-1.66 9.34c.162.394.297.74.297 1.047 0 .326-.135.72-.26 1.094-.23.663-.46 1.354.02 1.844.49.49 1.18.25 1.843.019.374-.135.758-.26 1.075-.26.307 0 .653.135 1.047.289.958.45 2.123.793 3.22.786.176 0 .24-.222.108-.339-2.656-2.359-2.297-7.039.08-9.433Z" clip-rule="evenodd"/>
  <path fill="currentColor" fill-rule="evenodd" d="M20.34 17.93c0-.154.064-.324.164-.576a5.052 5.052 0 0 0-1.002-5.662 4.959 4.959 0 0 0-3.537-1.469 4.958 4.958 0 0 0-3.537 1.47 5.034 5.034 0 0 0 0 7.095A5.011 5.011 0 0 0 18.06 19.8c.229-.093.426-.173.586-.173.178.001.397.077.61.15.406.14.866.299 1.196-.033.33-.332.174-.791.036-1.197-.073-.215-.149-.436-.149-.617Z" clip-rule="evenodd"/>
</svg>
