<?xml version="1.0" encoding="utf-8"?>
<svg xmlns="http://www.w3.org/2000/svg" width="24" height="24" viewBox="0 0 20 20" fill="none">
  <path fill="currentColor" d="M10.004 1C14.92 1 18.976 4.61 19 8.955c0 2.747-2.255 5-5.002 5h-1.797a1.477 1.477 0 0 0-1.502 1.501c0 .426.134.753.395 1.013.231.26.393.618.393 1.011 0 .848-.65 1.52-1.483 1.52C5.052 19 1 14.95 1 10s4.052-9 9.004-9ZM5.25 9a1.25 1.25 0 1 0 0 2.5 1.25 1.25 0 0 0 0-2.5Zm9-2a1.25 1.25 0 1 0 0 2.5 1.25 1.25 0 0 0 0-2.5Zm-7-2a1.25 1.25 0 1 0 0 2.5 1.25 1.25 0 0 0 0-2.5Zm4-1a1.25 1.25 0 1 0 0 2.5 1.25 1.25 0 0 0 0-2.5Z"/>
</svg>
