<?xml version="1.0" encoding="utf-8"?>
<svg xmlns="http://www.w3.org/2000/svg" width="24" height="24" fill="none" viewBox="0 0 18 18">
  <path fill="currentColor" d="M6.694 14.252c.479.04.941.069 1.389.087a4.72 4.72 0 0 0 .067 2.063 3.968 3.968 0 0 1-1.988-1.152.573.573 0 0 1-.094-.67.654.654 0 0 1 .626-.328ZM9.001 1.5c3.269 0 4.905 2.546 5.18 4.657-1.042.362-1.842 1.336-1.842 2.559v1.764c-1.79.208-3.352 1.368-4.009 3.012-2.228-.033-4.286-.261-5.042-1.332-.346-.489-.38-1.091-.101-1.787.651-1.392.635-1.909.605-2.848a21.233 21.233 0 0 1-.015-.739c0-2.194 1.621-5.286 5.224-5.286Zm3.919 10.944a2.894 2.894 0 0 1 .191.007l-.191-.007Z"/>
  <path fill="currentColor" fill-rule="evenodd" d="M15.835 15.172c0-.01.006-.018.006-.028v-4.477a3.56 3.56 0 0 0 1.259.5c.404.077.801-.17.885-.556.083-.387-.18-.764-.586-.842-1.136-.22-1.591-1.27-1.608-1.31a.756.756 0 0 0-.838-.446.725.725 0 0 0-.614.703v4.094a2.99 2.99 0 0 0-1.42-.365c-1.61 0-2.919 1.246-2.919 2.778C10 16.754 11.31 18 12.92 18c1.61 0 2.92-1.245 2.92-2.777 0-.018-.005-.033-.005-.051Z" clip-rule="evenodd"/>
</svg>
