<?xml version="1.0" encoding="utf-8"?>
<svg xmlns="http://www.w3.org/2000/svg" width="24" height="24" viewBox="0 0 20 20" fill="none">
  <path fill="currentColor" d="M9.905 2.501c2.422 0 4.113 1.669 4.113 4.06v6.88c0 2.39-1.69 4.06-4.113 4.06H4.113c-2.422 0-4.113-1.67-4.113-4.06V6.56c0-2.391 1.691-4.06 4.113-4.06zm8.053 2.379c.439-.223.954-.2 1.373.064.419.263.669.72.669 1.22v7.675a1.43 1.43 0 0 1-1.412 1.436c-.215 0-.43-.05-.631-.153l-1.481-.748a1.62 1.62 0 0 1-.888-1.457V7.085c0-.621.34-1.18.888-1.456z"/>
</svg>
