<?xml version="1.0" encoding="utf-8"?>
<svg xmlns="http://www.w3.org/2000/svg" width="24" height="24" fill="none" viewBox="0 0 18 18">
  <path fill="currentColor" d="M6.694 14.252c.453.038.891.066 1.317.084.034.63.168 1.26.406 1.864-.021.07-.043.153-.065.243a3.946 3.946 0 0 1-2.19-1.193.573.573 0 0 1-.094-.67.654.654 0 0 1 .626-.328ZM9.001 1.5c3.602 0 5.222 3.092 5.222 5.286 0 .277-.008.517-.015.74-.005.17-.01.327-.01.477a5.988 5.988 0 0 0-4.44 1.75l-.001.002a6.01 6.01 0 0 0-1.734 3.733c-2.108-.05-4.014-.307-4.735-1.328-.346-.489-.38-1.091-.101-1.787.651-1.392.635-1.909.605-2.848a21.233 21.233 0 0 1-.015-.739c0-2.194 1.621-5.286 5.224-5.286Zm1.963 9.894a3.977 3.977 0 0 0-.004.004l.004-.004Z"/>
  <path fill="currentColor" fill-rule="evenodd" d="M16.83 11.17a4.008 4.008 0 0 0-5.659 0 4.017 4.017 0 0 0-.805 4.506c.077.192.132.337.132.456 0 .141-.06.316-.117.486-.111.327-.238.698.034.969.27.271.642.143.97.031.167-.057.34-.117.48-.117.122 0 .277.062.455.134a4.019 4.019 0 0 0 4.51-.807 4.007 4.007 0 0 0 0-5.659Z" clip-rule="evenodd"/>
</svg>
