<?xml version="1.0" encoding="utf-8"?>
<svg xmlns="http://www.w3.org/2000/svg" width="24" height="24" fill="none" viewBox="0 0 18 18">
  <g stroke="currentColor" stroke-linecap="round" stroke-linejoin="round" stroke-width="2">
    <path d="M9 2c-.53 0-1.04.219-1.414.608C7.21 2.998 7 3.526 7 4.077v4.846c0 .55.21 1.08.586 1.469.375.39.884.608 1.414.608.53 0 1.04-.219 1.414-.608.375-.39.586-.918.586-1.469V4.077c0-.55-.21-1.08-.586-1.469A1.963 1.963 0 0 0 9 2Z"/>
    <path d="M14 8v1.333c0 1.238-.527 2.425-1.464 3.3C11.598 13.508 10.326 14 9 14s-2.598-.492-3.536-1.367C4.527 11.758 4 10.571 4 9.333V8M9 14v2"/>
  </g>
</svg>
