<?xml version="1.0" encoding="utf-8"?>
<svg width="24" height="24" viewBox="0 0 20 20" fill="none" xmlns="http://www.w3.org/2000/svg">
  <path d="M10 17.5a7.5 7.5 0 1 0 0-15 7.5 7.5 0 0 0 0 15Z" stroke-width="2" stroke-linecap="round" stroke-linejoin="round"/>
  <path d="M7.6 11.908c.585.76 1.445 1.234 2.4 1.234.956 0 1.816-.474 2.4-1.234M7.308 7.504v-.043m-.038-.127a.188.188 0 1 0 .002.374.188.188 0 0 0-.002-.374ZM12.692 7.504v-.043m-.005-.127a.188.188 0 1 0 .002.374.188.188 0 0 0-.002-.374Z" stroke-width="2" stroke-linecap="round" stroke-linejoin="round"/>
</svg>
