<?xml version="1.0" encoding="utf-8"?>
<svg xmlns="http://www.w3.org/2000/svg" width="24" height="24" fill="none" viewBox="0 0 18 18">
  <path fill="currentColor" d="M6.694 14.252C7.151 14.291 7.593 14.318 8.021 14.336 8.121 15.23 8.613 16.004 9.322 16.484 9.215 16.494 9.106 16.5 8.997 16.5H8.995C7.933 16.5 6.927 16.055 6.162 15.25 6.077 15.163 6.023 15.051 6.006 14.931 5.989 14.81 6.011 14.687 6.068 14.58 6.186 14.36 6.439 14.233 6.694 14.252ZM9.001 1.5C12.603 1.5 14.223 4.592 14.223 6.786 14.223 7.063 14.216 7.303 14.208 7.525 14.203 7.697 14.199 7.855 14.198 8.007 14.133 8.003 14.067 8 14 8 12.343 8 11 9.343 11 11 9.517 11 8.287 12.076 8.045 13.489 5.928 13.44 4.012 13.185 3.288 12.16 2.942 11.671 2.908 11.069 3.187 10.373 3.838 8.981 3.822 8.464 3.792 7.525 3.784 7.303 3.777 7.062 3.777 6.786 3.777 4.592 5.398 1.5 9.001 1.5ZM13 11C13 10.448 13.448 10 14 10 14.552 10 15 10.448 15 11V17C15 17.552 14.552 18 14 18 13.448 18 13 17.552 13 17V11Z"/>
  <path fill="currentColor" d="M11 15C10.4477 15 10 14.5523 10 14C10 13.4477 10.4477 13 11 13H17C17.5523 13 18 13.4477 18 14C18 14.5523 17.5523 15 17 15H11Z"/>
</svg>
