<?xml version="1.0" encoding="utf-8"?>
<svg xmlns="http://www.w3.org/2000/svg" width="24" height="24" viewBox="0 0 24 24" fill="none">
  <path fill="currentColor" fill-rule="evenodd" d="M8.078 10.367c0-.01.006-.019.006-.029V5.636a3.46 3.46 0 0 0 1.257.526.749.749 0 1 0 .299-1.469c-1.135-.23-1.589-1.333-1.606-1.375a.75.75 0 0 0-1.45.269v4.3a2.873 2.873 0 0 0-1.418-.384 2.92 2.92 0 0 0-2.916 2.918 2.92 2.92 0 0 0 2.916 2.916 2.92 2.92 0 0 0 2.917-2.916c0-.019-.005-.035-.005-.054ZM21.75 6.503a.749.749 0 0 0-1.067-.68c-2.557 1.189-5.245 1.683-7.982 1.469a.752.752 0 0 0-.568.196.752.752 0 0 0-.24.55v7.697a2.866 2.866 0 0 0-1.402-.377 2.907 2.907 0 0 0-2.903 2.904 2.906 2.906 0 0 0 2.903 2.903 2.906 2.906 0 0 0 2.903-2.903v-6.925c.183.007.368.023.552.023 2.151 0 4.26-.427 6.303-1.228V14.2a2.87 2.87 0 0 0-1.403-.377 2.906 2.906 0 0 0-2.903 2.903 2.906 2.906 0 0 0 2.903 2.903 2.906 2.906 0 0 0 2.903-2.903V6.502Z" clip-rule="evenodd"/>
</svg>
