<?xml version="1.0" encoding="utf-8"?>
<svg xmlns="http://www.w3.org/2000/svg" width="24" height="24" fill="none" viewBox="0 0 20 20">
  <path stroke="currentColor" stroke-width="2" d="M14.953 5.046c-2.73-2.728-7.173-2.728-9.903 0-2.07 2.07-2.634 5.247-1.41 7.888.136.336.232.59.232.798 0 .247-.105.553-.205.849-.195.573-.416 1.222.058 1.696.475.475 1.125.251 1.697.055.294-.1.598-.205.84-.205.215 0 .486.109.798.235a7.034 7.034 0 0 0 7.893-1.412c2.73-2.73 2.73-7.172 0-9.904Z" clip-rule="evenodd"/>
</svg>
