<?xml version="1.0" encoding="utf-8"?>
<svg xmlns="http://www.w3.org/2000/svg" width="24" height="24" fill="none" viewBox="0 0 24 24">
  <path fill="currentColor" fill-rule="evenodd" d="M18.723 10.043a.918.918 0 0 0-.658-.261c-1.069 0-1.939.832-1.939 1.853 0 .015 0 .049-.004.06l-.008 1.876c0 .22-.18.392-.41.392a.397.397 0 0 1-.41-.392V5.948c0-.366-.153-.722-.42-.98-.548-.52-1.48-.523-2.045.003-.27.27-.42.618-.42.977v5.034a.401.401 0 0 1-.409.391c-.219 0-.41-.182-.41-.391v-6.61a1.342 1.342 0 0 0-.422-.968 1.408 1.408 0 0 0-.471-.3 1.513 1.513 0 0 0-1.098-.001 1.426 1.426 0 0 0-.783.747c-.072.156-.11.342-.11.522v6.61a.401.401 0 0 1-.41.391c-.219 0-.41-.182-.41-.391V7.126c0-.736-.671-1.382-1.438-1.382C5.677 5.744 5 6.385 5 7.116v7.276c.023 1.768.759 3.426 2.074 4.67A7.162 7.162 0 0 0 12 21a7.16 7.16 0 0 0 4.926-1.937c1.315-1.245 2.052-2.907 2.074-4.684v-3.704c0-.241-.097-.461-.277-.632Z" clip-rule="evenodd"/>
</svg>
